<svg xmlns="http://www.w3.org/2000/svg" version="1.1" xmlns:xlink="http://www.w3.org/1999/xlink" width="512" height="512" x="0" y="0" viewBox="0 0 128 128" style="enable-background:new 0 0 512 512" xml:space="preserve" class=""><g><path d="M64 0C28.711 0 0 28.711 0 64s28.711 64 64 64 64-28.711 64-64S99.289 0 64 0zm0 120C33.121 120 8 94.879 8 64S33.121 8 64 8s56 25.121 56 56-25.121 56-56 56zm22.828-62.828a3.997 3.997 0 0 1 0 5.656C86.047 63.609 85.023 64 84 64s-2.047-.391-2.828-1.172L68 49.656V88c0 2.211-1.791 4-4 4s-4-1.789-4-4V49.656L46.828 62.828c-1.563 1.563-4.094 1.563-5.656 0s-1.563-4.094 0-5.656l20-20a3.997 3.997 0 0 1 5.656 0z" fill="#FFFFFF" opacity="1" data-original="#000000" class=""></path></g></svg>