<svg xmlns="http://www.w3.org/2000/svg" version="1.1" xmlns:xlink="http://www.w3.org/1999/xlink" width="512" height="512" x="0" y="0" viewBox="0 0 32 32" style="enable-background:new 0 0 512 512" xml:space="preserve"><g><g data-name="Layer 2"><path d="M29.467 13.1a6.829 6.829 0 0 1-.644-1.262 7.221 7.221 0 0 1-.238-1.465 5.688 5.688 0 0 0-.838-2.9 5.72 5.72 0 0 0-2.516-1.7 7.126 7.126 0 0 1-1.307-.67A7.041 7.041 0 0 1 22.9 4.071a5.694 5.694 0 0 0-2.413-1.883 5.656 5.656 0 0 0-2.987.1 7.419 7.419 0 0 1-1.5.23 7.408 7.408 0 0 1-1.5-.23 5.675 5.675 0 0 0-2.987-.1A5.71 5.71 0 0 0 9.1 4.071a7.091 7.091 0 0 1-1.024 1.023 7.083 7.083 0 0 1-1.306.669 5.71 5.71 0 0 0-2.517 1.7 5.7 5.7 0 0 0-.838 2.9 7.314 7.314 0 0 1-.238 1.466 6.829 6.829 0 0 1-.644 1.271A5.734 5.734 0 0 0 1.48 16a5.734 5.734 0 0 0 1.053 2.905 6.829 6.829 0 0 1 .644 1.262 7.292 7.292 0 0 1 .238 1.465 5.688 5.688 0 0 0 .838 2.9 5.72 5.72 0 0 0 2.516 1.7 7.126 7.126 0 0 1 1.307.67A7.041 7.041 0 0 1 9.1 27.929a5.7 5.7 0 0 0 2.413 1.884 5.646 5.646 0 0 0 2.987-.1 7.419 7.419 0 0 1 1.5-.23 7.408 7.408 0 0 1 1.5.23 8.785 8.785 0 0 0 1.872.269 3.591 3.591 0 0 0 1.115-.166 5.71 5.71 0 0 0 2.413-1.887 7.091 7.091 0 0 1 1.023-1.023 7.083 7.083 0 0 1 1.306-.669 5.71 5.71 0 0 0 2.517-1.7 5.7 5.7 0 0 0 .838-2.9 7.244 7.244 0 0 1 .238-1.466 6.829 6.829 0 0 1 .644-1.262A5.734 5.734 0 0 0 30.52 16a5.734 5.734 0 0 0-1.053-2.9Zm-1.72 4.791a8.372 8.372 0 0 0-.826 1.663 8.8 8.8 0 0 0-.326 1.889 4.172 4.172 0 0 1-.465 1.921 4.162 4.162 0 0 1-1.7 1.043 8.63 8.63 0 0 0-1.685.887 8.574 8.574 0 0 0-1.345 1.312 4.172 4.172 0 0 1-1.531 1.3 4.165 4.165 0 0 1-1.939-.154A8.958 8.958 0 0 0 16 27.48a9.02 9.02 0 0 0-1.93.276 4.158 4.158 0 0 1-1.941.154 4.162 4.162 0 0 1-1.529-1.3 8.624 8.624 0 0 0-1.347-1.318 8.646 8.646 0 0 0-1.687-.892 4.179 4.179 0 0 1-1.7-1.043 4.179 4.179 0 0 1-.465-1.921 8.779 8.779 0 0 0-.326-1.889 8.372 8.372 0 0 0-.826-1.663A4.173 4.173 0 0 1 3.48 16a4.173 4.173 0 0 1 .773-1.886 8.372 8.372 0 0 0 .826-1.663 8.8 8.8 0 0 0 .326-1.889 4.172 4.172 0 0 1 .465-1.921A4.162 4.162 0 0 1 7.567 7.6a8.63 8.63 0 0 0 1.685-.887A8.574 8.574 0 0 0 10.6 5.394a4.172 4.172 0 0 1 1.531-1.3 4.165 4.165 0 0 1 1.939.154A8.958 8.958 0 0 0 16 4.52a9.02 9.02 0 0 0 1.93-.276 4.156 4.156 0 0 1 1.941-.154 4.162 4.162 0 0 1 1.529 1.3 8.624 8.624 0 0 0 1.347 1.318 8.646 8.646 0 0 0 1.687.887 4.179 4.179 0 0 1 1.7 1.043 4.18 4.18 0 0 1 .465 1.922 8.78 8.78 0 0 0 .326 1.888 8.372 8.372 0 0 0 .826 1.663A4.173 4.173 0 0 1 28.52 16a4.173 4.173 0 0 1-.773 1.886Z" fill="#000000" opacity="1" data-original="#000000"></path><path d="m20.35 12.241-6.231 5.34-2.35-2.821a1 1 0 0 0-1.538 1.28l3 3.6a1 1 0 0 0 .685.357L14 20a1 1 0 0 0 .65-.241l7-6a1 1 0 1 0-1.3-1.518Z" fill="#000000" opacity="1" data-original="#000000"></path></g></g></svg>