<svg xmlns="http://www.w3.org/2000/svg" version="1.1" xmlns:xlink="http://www.w3.org/1999/xlink" width="512" height="512" x="0" y="0" viewBox="0 0 512 512" style="enable-background:new 0 0 512 512" xml:space="preserve"><g><path d="M10.742 340.782A12.193 12.193 0 0 0 0 352.883v36.235a12.2 12.2 0 0 0 10.741 12.1l23.715 2.835a110.977 110.977 0 0 0 7.839 18.9l-14.77 18.781a12.193 12.193 0 0 0 .962 16.152l25.622 25.622a12.193 12.193 0 0 0 16.152.962l18.788-14.77a110.972 110.972 0 0 0 18.9 7.838l2.836 23.721A12.2 12.2 0 0 0 122.882 512h36.235a12.2 12.2 0 0 0 12.1-10.741l2.835-23.714a111.105 111.105 0 0 0 18.9-7.839l18.781 14.769a12.194 12.194 0 0 0 16.152-.962l25.622-25.622a12.2 12.2 0 0 0 .962-16.152L239.7 422.951a110.986 110.986 0 0 0 7.838-18.9l23.721-2.836A12.2 12.2 0 0 0 282 389.118v-36.235a12.193 12.193 0 0 0-10.741-12.1l-23.715-2.836a111.024 111.024 0 0 0-7.839-18.9l14.769-18.781a12.193 12.193 0 0 0-.961-16.152l-25.622-25.622a12.2 12.2 0 0 0-16.152-.962l-18.788 14.77a111.019 111.019 0 0 0-18.9-7.838l-2.836-23.721A12.2 12.2 0 0 0 159.118 230h-36.236a12.2 12.2 0 0 0-12.1 10.741l-2.836 23.721a110.958 110.958 0 0 0-18.9 7.837l-18.785-14.774a12.2 12.2 0 0 0-16.152.962l-25.621 25.622a12.192 12.192 0 0 0-.963 16.152L42.3 319.047a111.01 111.01 0 0 0-7.838 18.9ZM44.908 345a98.949 98.949 0 0 1 9.763-23.542 6 6 0 0 0-.484-6.7l-17.23-21.911a.165.165 0 0 1 .016-.247L62.6 266.972a.166.166 0 0 1 .248-.014l21.91 17.23a6 6 0 0 0 6.7.485A99.02 99.02 0 0 1 115 274.91a6 6 0 0 0 4.394-5.08l3.307-27.664a.168.168 0 0 1 .186-.166h36.236a.168.168 0 0 1 .186.166l3.307 27.664a6 6 0 0 0 4.394 5.08 98.978 98.978 0 0 1 23.54 9.764 6 6 0 0 0 6.7-.485l21.912-17.231a.165.165 0 0 1 .248.015l25.617 25.627a.167.167 0 0 1 .015.248l-17.226 21.9a6 6 0 0 0-.484 6.7A99.009 99.009 0 0 1 237.1 345a6 6 0 0 0 5.08 4.394l27.658 3.307a.166.166 0 0 1 .165.186v36.235a.168.168 0 0 1-.166.186l-27.664 3.308a6 6 0 0 0-5.08 4.393 98.961 98.961 0 0 1-9.764 23.54 6 6 0 0 0 .485 6.7l17.231 21.911a.168.168 0 0 1-.015.249l-25.621 25.621a.166.166 0 0 1-.249.015l-21.9-17.225a6 6 0 0 0-6.7-.484A99.006 99.006 0 0 1 167 467.1a6 6 0 0 0-4.394 5.08l-3.306 27.654a.167.167 0 0 1-.187.166h-36.231a.167.167 0 0 1-.186-.166l-3.307-27.664a6 6 0 0 0-4.389-5.08 98.968 98.968 0 0 1-23.54-9.763 6 6 0 0 0-6.7.485l-21.911 17.23a.168.168 0 0 1-.249-.014l-25.628-25.623a.166.166 0 0 1-.014-.248l17.226-21.9a6 6 0 0 0 .484-6.7A98.936 98.936 0 0 1 44.9 397a6 6 0 0 0-5.08-4.393L12.166 389.3a.167.167 0 0 1-.166-.186v-36.231a.167.167 0 0 1 .166-.186l27.662-3.308a6 6 0 0 0 5.08-4.389ZM141 436.387A65.387 65.387 0 1 0 75.613 371 65.462 65.462 0 0 0 141 436.387Zm0-118.774A53.387 53.387 0 1 1 87.613 371 53.448 53.448 0 0 1 141 317.613ZM371 0c-77.748 0-141 63.252-141 141s63.252 141 141 141 141-63.252 141-141S448.748 0 371 0Zm-79.929 242.181a80.367 80.367 0 0 1 159.858 0 128.735 128.735 0 0 1-159.858 0Zm170.553-9.47a92.684 92.684 0 0 0-62.646-70.147 55.3 55.3 0 1 0-55.956 0 92.684 92.684 0 0 0-62.646 70.147 129 129 0 1 1 181.248 0ZM371 158.192a43.3 43.3 0 1 1 43.3-43.3 43.352 43.352 0 0 1-43.3 43.3ZM95.316 69.316h115.33l-12.425-11.3a6 6 0 0 1 8.074-8.878l23.9 21.74a6 6 0 0 1 0 8.877L206.3 101.5a6 6 0 0 1-8.074-8.877l12.426-11.3H95.316a14.016 14.016 0 0 0-14 14v144.349a6 6 0 0 1-12 0V95.316a26.029 26.029 0 0 1 26-26Zm204.953 350.068-12.426 11.3h128.841a14.016 14.016 0 0 0 14-14V285.838a6 6 0 0 1 12 0v130.846a26.029 26.029 0 0 1-26 26H287.841l12.427 11.3a6 6 0 0 1-8.075 8.877l-23.9-21.741a6 6 0 0 1 0-8.877l23.9-21.74a6 6 0 0 1 8.075 8.878Z" fill="#000000" opacity="1" data-original="#000000"></path></g></svg>