<svg xmlns="http://www.w3.org/2000/svg" version="1.1" xmlns:xlink="http://www.w3.org/1999/xlink" width="512" height="512" x="0" y="0" viewBox="0 0 463 463" style="enable-background:new 0 0 512 512" xml:space="preserve"><g><path d="M431.5 400a31.315 31.315 0 0 0-16.325 4.569L287.711 277.104a7.512 7.512 0 0 0-.698-.609C297 264.198 303 248.539 303 231.5c0-17.017-5.985-32.656-15.948-44.946l86.888-86.888C383.268 106.77 394.897 111 407.5 111c30.603 0 55.5-24.897 55.5-55.5S438.103 0 407.5 0 352 24.897 352 55.5c0 12.603 4.23 24.232 11.334 33.559l-86.888 86.888C264.156 165.985 248.517 160 231.5 160s-32.656 5.985-44.946 15.948l-40.123-40.123A31.315 31.315 0 0 0 151 119.5c0-17.369-14.131-31.5-31.5-31.5S88 102.131 88 119.5s14.131 31.5 31.5 31.5a31.315 31.315 0 0 0 16.325-4.569l40.123 40.123C165.985 198.844 160 214.483 160 231.5a71.095 71.095 0 0 0 5.415 27.266l-95.404 51.677C62.761 301.63 51.776 296 39.5 296 17.72 296 0 313.72 0 335.5S17.72 375 39.5 375 79 357.28 79 335.5c0-4.137-.642-8.126-1.827-11.876l95.408-51.679C185.485 290.684 207.077 303 231.5 303c2.74 0 5.44-.17 8.101-.472l9.943 44.743C239.159 352.426 232 363.14 232 375.5c0 17.369 14.131 31.5 31.5 31.5s31.5-14.131 31.5-31.5c0-17.139-13.761-31.115-30.813-31.483l-9.944-44.747a71.433 71.433 0 0 0 22.253-12.257c.188.241.387.476.609.698l127.464 127.464A31.315 31.315 0 0 0 400 431.5c0 17.369 14.131 31.5 31.5 31.5s31.5-14.131 31.5-31.5-14.131-31.5-31.5-31.5zm-392-40C25.991 360 15 349.009 15 335.5S25.991 311 39.5 311 64 321.991 64 335.5 53.009 360 39.5 360zM280 375.5c0 9.098-7.402 16.5-16.5 16.5s-16.5-7.402-16.5-16.5 7.402-16.5 16.5-16.5 16.5 7.402 16.5 16.5zM407.5 15c22.332 0 40.5 18.168 40.5 40.5S429.832 96 407.5 96 367 77.832 367 55.5 385.168 15 407.5 15zM103 119.5c0-9.098 7.402-16.5 16.5-16.5s16.5 7.402 16.5 16.5-7.402 16.5-16.5 16.5-16.5-7.402-16.5-16.5zM231.5 288c-31.154 0-56.5-25.346-56.5-56.5s25.346-56.5 56.5-56.5 56.5 25.346 56.5 56.5-25.346 56.5-56.5 56.5zm200 160c-9.098 0-16.5-7.402-16.5-16.5s7.402-16.5 16.5-16.5 16.5 7.402 16.5 16.5-7.402 16.5-16.5 16.5z" fill="#000000" opacity="1" data-original="#000000"></path><path d="M231.5 192a7.5 7.5 0 0 0 0 15c13.509 0 24.5 10.991 24.5 24.5a7.5 7.5 0 0 0 15 0c0-21.78-17.72-39.5-39.5-39.5zM407.5 47c4.687 0 8.5 3.813 8.5 8.5a7.5 7.5 0 0 0 15 0c0-12.958-10.542-23.5-23.5-23.5a7.5 7.5 0 0 0 0 15z" fill="#000000" opacity="1" data-original="#000000"></path></g></svg>