<?xml version="1.0" encoding="UTF-8" standalone="no"?>
<!-- Creator: CorelDRAW -->

<svg
   xml:space="preserve"
   width="1396"
   height="803"
   version="1.1"
   style="clip-rule:evenodd;fill-rule:evenodd;image-rendering:optimizeQuality;shape-rendering:geometricPrecision;text-rendering:geometricPrecision"
   viewBox="0 0 1395.53 803.16"
   id="svg5"
   sodipodi:docname="Логотип Оптималхим.svg"
   inkscape:export-filename="logo_vertical.svg"
   inkscape:export-xdpi="96"
   inkscape:export-ydpi="96"
   xmlns:inkscape="http://www.inkscape.org/namespaces/inkscape"
   xmlns:sodipodi="http://sodipodi.sourceforge.net/DTD/sodipodi-0.dtd"
   xmlns="http://www.w3.org/2000/svg"
   xmlns:svg="http://www.w3.org/2000/svg"><sodipodi:namedview
   id="namedview5"
   pagecolor="#ffffff"
   bordercolor="#000000"
   borderopacity="0.25"
   inkscape:showpageshadow="2"
   inkscape:pageopacity="0.0"
   inkscape:pagecheckerboard="0"
   inkscape:deskcolor="#d1d1d1" />
 <defs
   id="defs1"><style
     type="text/css"
     id="style1">
   <![CDATA[
    .fil2 {fill:#3FC4BD}
    .fil1 {fill:#3FC4BD;fill-rule:nonzero}
    .fil0 {fill:white;fill-rule:nonzero}
   ]]>
  </style></defs>
 <g
   id="Слой_x0020_1"
   inkscape:label="Слой 1"
   inkscape:groupmode="layer">
  <metadata
   id="CorelCorpID_0Corel-Layer" />
  <g
   id="_2555511825008">
   <path
   class="fil0"
   d="m 67,702.91 c -12.77,0 -24.25,-2.66 -34.43,-7.98 C 22.39,689.62 14.42,682.24 8.65,672.8 2.88,663.36 0,652.7 0,640.83 c 0,-11.88 2.88,-22.54 8.65,-31.98 5.77,-9.44 13.74,-16.82 23.92,-22.14 10.18,-5.31 21.66,-7.97 34.43,-7.97 12.78,0 24.26,2.66 34.44,7.97 10.18,5.32 18.15,12.7 23.92,22.14 5.76,9.44 8.65,20.1 8.65,31.98 0,11.87 -2.89,22.53 -8.65,31.97 -5.77,9.44 -13.74,16.82 -23.92,22.13 -10.18,5.32 -21.66,7.98 -34.44,7.98 z m 0,-32.4 c 4.98,0 9.47,-1.22 13.49,-3.65 4.01,-2.43 7.21,-5.88 9.58,-10.34 2.38,-4.47 3.57,-9.7 3.57,-15.69 0,-6 -1.19,-11.23 -3.57,-15.69 -2.37,-4.47 -5.57,-7.92 -9.58,-10.35 -4.02,-2.43 -8.51,-3.65 -13.49,-3.65 -4.97,0 -9.47,1.22 -13.48,3.65 -4.02,2.43 -7.21,5.88 -9.59,10.35 -2.37,4.46 -3.56,9.69 -3.56,15.69 0,5.99 1.19,11.22 3.56,15.69 2.38,4.46 5.57,7.91 9.59,10.34 4.01,2.43 8.51,3.65 13.48,3.65 z M 263.26,581.46 V 700.19 H 223.91 V 612.5 h -36.13 v 87.69 H 148.42 V 581.46 Z M 385.4,612.5 h -34.78 v 87.69 H 311.27 V 612.5 H 276.49 V 581.46 H 385.4 Z m 13.23,-31.04 h 39.35 v 61.74 l 40.88,-61.74 h 37.66 v 118.73 h -39.36 v -61.57 l -40.71,61.57 h -37.82 z m 244.94,118.73 -0.34,-54.11 -25.78,43.43 H 599.8 l -25.78,-41.56 v 52.24 H 537.55 V 581.46 h 32.91 l 38.67,63.27 37.66,-63.27 h 32.91 l 0.34,118.73 z M 784.7,679.5 h -45.12 l -7.98,20.69 H 690.89 L 742.8,581.46 h 39.35 l 51.91,118.73 h -41.39 z m -11.03,-28.84 -11.53,-29.85 -11.54,29.85 z m 188.97,-69.2 V 700.19 H 923.28 V 612.5 h -27.14 l -0.34,13.74 c -0.45,16.96 -1.8,30.87 -4.07,41.72 -2.26,10.86 -6.22,19.31 -11.87,25.36 -5.66,6.05 -13.74,9.08 -24.26,9.08 -5.31,0 -10.97,-0.74 -16.96,-2.21 l 2.03,-32.06 c 1.48,0.34 2.95,0.51 4.42,0.51 4.18,0 7.38,-1.69 9.58,-5.09 2.2,-3.39 3.7,-7.91 4.5,-13.56 0.79,-5.66 1.35,-13.07 1.69,-22.23 l 1.53,-46.3 z m 59.37,-0.18 17.3,27.99 17.3,-27.99 h 46.31 l -38.5,56.66 42.06,62.25 h -47.15 l -20.02,-30.7 -19.68,30.7 h -45.97 l 41.73,-60.38 -39.18,-58.53 z m 92.1,0.18 h 39.36 v 61.74 l 40.88,-61.74 h 37.66 v 118.73 h -39.36 v -61.57 l -40.71,61.57 h -37.83 z m 244.95,118.73 -0.34,-54.11 -25.78,43.43 h -17.65 l -25.78,-41.56 v 52.24 h -36.47 V 581.46 h 32.91 l 38.67,63.27 37.66,-63.27 h 32.91 l 0.34,118.73 z"
   id="path1"
   style="fill:#002f54;fill-opacity:1;fill-rule:nonzero" />
   <path
   class="fil1"
   d="m 46.75,790.86 v 12.3 h -6.66 v -6.44 H 18.15 v 6.44 h -6.66 l 0.05,-12.3 h 1.24 c 1.87,-0.06 3.18,-1.42 3.95,-4.08 0.77,-2.67 1.24,-6.47 1.42,-11.41 l 0.36,-9.73 h 23.88 v 25.22 z M 24.5,776.03 c -0.15,3.7 -0.46,6.8 -0.93,9.31 -0.47,2.5 -1.2,4.34 -2.18,5.52 h 13.9 V 771.51 H 24.63 Z m 41.91,21.23 c -3.22,0 -6.13,-0.7 -8.72,-2.09 -2.59,-1.39 -4.62,-3.31 -6.08,-5.75 -1.47,-2.44 -2.2,-5.19 -2.2,-8.24 0,-3.04 0.73,-5.79 2.2,-8.23 1.46,-2.44 3.49,-4.36 6.08,-5.75 2.59,-1.39 5.5,-2.09 8.72,-2.09 3.23,0 6.13,0.7 8.71,2.09 2.57,1.39 4.6,3.31 6.08,5.75 1.48,2.44 2.22,5.19 2.22,8.23 0,3.05 -0.74,5.8 -2.22,8.24 -1.48,2.44 -3.51,4.36 -6.08,5.75 -2.58,1.39 -5.48,2.09 -8.71,2.09 z m 0,-6.13 c 1.84,0 3.5,-0.42 4.98,-1.27 1.48,-0.84 2.64,-2.02 3.48,-3.52 0.84,-1.52 1.27,-3.23 1.27,-5.16 0,-1.92 -0.43,-3.64 -1.27,-5.15 -0.84,-1.51 -2,-2.68 -3.48,-3.53 -1.48,-0.84 -3.14,-1.26 -4.98,-1.26 -1.83,0 -3.49,0.42 -4.97,1.26 -1.48,0.85 -2.64,2.02 -3.48,3.53 -0.85,1.51 -1.27,3.23 -1.27,5.15 0,1.93 0.42,3.64 1.27,5.16 0.84,1.5 2,2.68 3.48,3.52 1.48,0.85 3.14,1.27 4.97,1.27 z m 22.56,-25.49 h 25.08 v 5.73 H 96.12 v 6.4 h 8.61 c 3.76,0 6.62,0.78 8.59,2.35 1.97,1.57 2.95,3.83 2.95,6.79 0,3.11 -1.09,5.52 -3.28,7.24 -2.19,1.72 -5.29,2.57 -9.28,2.57 H 88.97 Z m 14.34,25.76 c 1.83,0 3.24,-0.37 4.22,-1.09 0.97,-0.73 1.46,-1.78 1.46,-3.18 0,-2.72 -1.89,-4.08 -5.68,-4.08 h -7.19 v 8.35 z m 39.2,-1.34 h -14.43 l -2.75,6.66 h -7.37 l 13.85,-31.08 h 7.11 l 13.89,31.08 h -7.54 z m -2.26,-5.46 -4.93,-11.9 -4.93,11.9 z m 38.23,-4.08 c 1.89,0.56 3.34,1.48 4.35,2.75 1,1.27 1.51,2.84 1.51,4.71 0,2.75 -1.05,4.9 -3.13,6.44 -2.09,1.53 -5.07,2.3 -8.95,2.3 h -15.32 v -31.08 h 14.48 c 3.61,0 6.42,0.7 8.43,2.09 2.02,1.39 3.02,3.38 3.02,5.95 0,1.54 -0.38,2.89 -1.15,4.06 -0.77,1.17 -1.85,2.1 -3.24,2.78 z m -14.39,-2 h 6.71 c 1.56,0 2.75,-0.32 3.55,-0.95 0.8,-0.64 1.2,-1.58 1.2,-2.82 0,-1.22 -0.41,-2.15 -1.22,-2.8 -0.82,-0.65 -2,-0.98 -3.53,-0.98 h -6.71 z m 7.9,12.88 c 3.38,0 5.06,-1.34 5.06,-4 0,-2.58 -1.68,-3.86 -5.06,-3.86 h -7.9 v 7.86 z m 30.06,-7.2 h -4.97 v 12.52 h -7.15 v -31.08 h 7.15 v 12.57 h 5.15 l 8.17,-12.57 h 7.59 l -10.17,15.01 10.48,16.07 h -8.17 z m 19.63,-18.56 h 7.14 v 20.25 l 14.83,-20.25 h 6.75 v 31.08 h -7.1 v -20.2 l -14.83,20.2 h -6.79 z m 81.07,25.22 v 12.3 h -6.66 v -6.44 h -21.93 v 6.44 h -6.66 l 0.04,-12.3 h 1.24 c 1.87,-0.06 3.19,-1.42 3.95,-4.08 0.77,-2.67 1.25,-6.47 1.43,-11.41 l 0.35,-9.73 h 23.89 v 25.22 z M 280.5,776.03 c -0.14,3.7 -0.46,6.8 -0.93,9.31 -0.47,2.5 -1.2,4.34 -2.17,5.52 h 13.89 v -19.35 h -10.65 z m 54.79,-10.39 v 31.08 h -7.1 v -25.21 h -10.66 l -0.22,6.48 c -0.15,4.41 -0.5,7.98 -1.07,10.72 -0.56,2.74 -1.5,4.84 -2.82,6.3 -1.31,1.47 -3.15,2.2 -5.52,2.2 -0.98,0 -2.16,-0.16 -3.55,-0.49 l 0.44,-6.08 c 0.38,0.12 0.81,0.18 1.29,0.18 1.71,0 2.91,-1.01 3.59,-3.04 0.69,-2.03 1.11,-5.2 1.29,-9.53 l 0.44,-12.61 z m 32.59,0 v 31.08 h -7.1 v -8.25 h -6.57 l -5.51,8.25 h -7.59 l 6.48,-9.36 c -2.1,-0.86 -3.71,-2.16 -4.84,-3.89 -1.12,-1.73 -1.69,-3.81 -1.69,-6.24 0,-2.39 0.55,-4.46 1.65,-6.19 1.09,-1.73 2.65,-3.06 4.66,-4 2.01,-0.93 4.38,-1.4 7.1,-1.4 z m -13.23,5.87 c -2.04,0 -3.6,0.47 -4.68,1.42 -1.08,0.94 -1.63,2.35 -1.63,4.21 0,1.81 0.52,3.2 1.56,4.18 1.04,0.97 2.56,1.46 4.57,1.46 h 6.31 v -11.27 z m 33.57,-5.87 h 25.08 v 5.73 h -17.94 v 6.4 h 8.62 c 3.76,0 6.62,0.78 8.59,2.35 1.96,1.57 2.95,3.83 2.95,6.79 0,3.11 -1.1,5.52 -3.29,7.24 -2.19,1.72 -5.28,2.57 -9.28,2.57 h -14.73 z m 14.34,25.76 c 1.83,0 3.24,-0.37 4.21,-1.09 0.98,-0.73 1.47,-1.78 1.47,-3.18 0,-2.72 -1.9,-4.08 -5.68,-4.08 h -7.2 v 8.35 z m 42.48,-0.45 v 5.77 h -24.06 v -31.08 h 23.49 v 5.78 h -16.34 v 6.75 h 14.43 v 5.59 h -14.43 v 7.19 z m 29.57,-19.44 h -9.94 v 25.21 h -7.11 v -25.21 h -9.9 v -5.87 h 26.95 z m 18.92,25.75 c -3.23,0 -6.14,-0.7 -8.73,-2.09 -2.59,-1.39 -4.61,-3.31 -6.08,-5.75 -1.46,-2.44 -2.2,-5.19 -2.2,-8.24 0,-3.04 0.74,-5.79 2.2,-8.23 1.47,-2.44 3.49,-4.36 6.08,-5.75 2.59,-1.39 5.5,-2.09 8.73,-2.09 3.22,0 6.12,0.7 8.7,2.09 2.58,1.39 4.6,3.31 6.08,5.75 1.48,2.44 2.22,5.19 2.22,8.23 0,3.05 -0.74,5.8 -2.22,8.24 -1.48,2.44 -3.5,4.36 -6.08,5.75 -2.58,1.39 -5.48,2.09 -8.7,2.09 z m 0,-6.13 c 1.83,0 3.49,-0.42 4.97,-1.27 1.48,-0.84 2.64,-2.02 3.49,-3.52 0.84,-1.52 1.26,-3.23 1.26,-5.16 0,-1.92 -0.42,-3.64 -1.26,-5.15 -0.85,-1.51 -2.01,-2.68 -3.49,-3.53 -1.48,-0.84 -3.14,-1.26 -4.97,-1.26 -1.84,0 -3.5,0.42 -4.97,1.26 -1.49,0.85 -2.65,2.02 -3.49,3.53 -0.84,1.51 -1.27,3.23 -1.27,5.15 0,1.93 0.43,3.64 1.27,5.16 0.84,1.5 2,2.68 3.49,3.52 1.47,0.85 3.13,1.27 4.97,1.27 z m 51.06,-25.49 v 31.08 h -7.2 v -12.74 h -14.12 v 12.74 h -7.19 v -31.08 h 7.19 v 12.26 h 14.12 v -12.26 z m 22.59,31.62 c -3.22,0 -6.13,-0.7 -8.72,-2.09 -2.59,-1.39 -4.62,-3.31 -6.08,-5.75 -1.47,-2.44 -2.2,-5.19 -2.2,-8.24 0,-3.04 0.73,-5.79 2.2,-8.23 1.46,-2.44 3.49,-4.36 6.08,-5.75 2.59,-1.39 5.5,-2.09 8.72,-2.09 3.23,0 6.13,0.7 8.71,2.09 2.57,1.39 4.6,3.31 6.08,5.75 1.48,2.44 2.22,5.19 2.22,8.23 0,3.05 -0.74,5.8 -2.22,8.24 -1.48,2.44 -3.51,4.36 -6.08,5.75 -2.58,1.39 -5.48,2.09 -8.71,2.09 z m 0,-6.13 c 1.84,0 3.5,-0.42 4.98,-1.27 1.48,-0.84 2.64,-2.02 3.48,-3.52 0.85,-1.52 1.27,-3.23 1.27,-5.16 0,-1.92 -0.42,-3.64 -1.27,-5.15 -0.84,-1.51 -2,-2.68 -3.48,-3.53 -1.48,-0.84 -3.14,-1.26 -4.98,-1.26 -1.83,0 -3.49,0.42 -4.97,1.26 -1.48,0.85 -2.64,2.02 -3.48,3.53 -0.85,1.51 -1.27,3.23 -1.27,5.15 0,1.93 0.42,3.64 1.27,5.16 0.84,1.5 2,2.68 3.48,3.52 1.48,0.85 3.14,1.27 4.97,1.27 z m 44.09,-10.61 c 1.9,0.56 3.35,1.48 4.35,2.75 1.01,1.27 1.51,2.84 1.51,4.71 0,2.75 -1.04,4.9 -3.13,6.44 -2.08,1.53 -5.07,2.3 -8.94,2.3 h -15.32 v -31.08 h 14.47 c 3.61,0 6.43,0.7 8.44,2.09 2.01,1.39 3.02,3.38 3.02,5.95 0,1.54 -0.39,2.89 -1.16,4.06 -0.77,1.17 -1.85,2.1 -3.24,2.78 z m -14.38,-2 h 6.7 c 1.57,0 2.75,-0.32 3.55,-0.95 0.8,-0.64 1.2,-1.58 1.2,-2.82 0,-1.22 -0.4,-2.15 -1.22,-2.8 -0.81,-0.65 -1.99,-0.98 -3.53,-0.98 h -6.7 z m 7.9,12.88 c 3.37,0 5.06,-1.34 5.06,-4 0,-2.58 -1.69,-3.86 -5.06,-3.86 h -7.9 v 7.86 z m 30.59,-25.76 h 7.15 v 20.25 l 14.83,-20.25 h 6.75 v 31.08 H 657 v -20.2 l -14.83,20.2 h -6.79 z m 63.71,31.62 c -3.16,0 -6.03,-0.69 -8.59,-2.07 -2.56,-1.37 -4.57,-3.28 -6.04,-5.72 -1.46,-2.45 -2.19,-5.21 -2.19,-8.29 0,-3.07 0.73,-5.83 2.19,-8.28 1.47,-2.44 3.48,-4.35 6.04,-5.72 2.56,-1.38 5.44,-2.07 8.64,-2.07 2.69,0 5.12,0.48 7.3,1.42 2.18,0.95 4,2.31 5.48,4.09 l -4.61,4.26 c -2.11,-2.43 -4.71,-3.64 -7.82,-3.64 -1.92,0 -3.64,0.42 -5.15,1.26 -1.51,0.85 -2.68,2.02 -3.53,3.53 -0.84,1.51 -1.26,3.23 -1.26,5.15 0,1.93 0.42,3.64 1.26,5.16 0.85,1.5 2.02,2.68 3.53,3.52 1.51,0.85 3.23,1.27 5.15,1.27 3.11,0 5.71,-1.23 7.82,-3.69 l 4.61,4.27 c -1.48,1.8 -3.31,3.18 -5.5,4.13 -2.19,0.94 -4.63,1.42 -7.33,1.42 z m 40.98,-25.75 h -9.94 v 25.21 h -7.11 v -25.21 h -9.9 v -5.87 h 26.95 z m 17.98,-5.87 c 2.76,0 5.15,0.46 7.17,1.38 2.03,0.92 3.59,2.22 4.69,3.91 1.09,1.69 1.64,3.68 1.64,5.99 0,2.28 -0.55,4.27 -1.64,5.97 -1.1,1.71 -2.66,3.01 -4.69,3.91 -2.02,0.9 -4.41,1.35 -7.17,1.35 h -6.26 v 8.57 h -7.19 v -31.08 z m -0.4,16.65 c 2.16,0 3.81,-0.46 4.93,-1.39 1.13,-0.94 1.69,-2.26 1.69,-3.98 0,-1.74 -0.56,-3.08 -1.69,-4.02 -1.12,-0.93 -2.77,-1.39 -4.93,-1.39 h -5.86 v 10.78 z m 33.92,14.97 c -3.22,0 -6.13,-0.7 -8.72,-2.09 -2.59,-1.39 -4.62,-3.31 -6.08,-5.75 -1.47,-2.44 -2.2,-5.19 -2.2,-8.24 0,-3.04 0.73,-5.79 2.2,-8.23 1.46,-2.44 3.49,-4.36 6.08,-5.75 2.59,-1.39 5.5,-2.09 8.72,-2.09 3.23,0 6.13,0.7 8.71,2.09 2.57,1.39 4.6,3.31 6.08,5.75 1.48,2.44 2.22,5.19 2.22,8.23 0,3.05 -0.74,5.8 -2.22,8.24 -1.48,2.44 -3.51,4.36 -6.08,5.75 -2.58,1.39 -5.48,2.09 -8.71,2.09 z m 0,-6.13 c 1.84,0 3.5,-0.42 4.98,-1.27 1.48,-0.84 2.64,-2.02 3.48,-3.52 0.85,-1.52 1.27,-3.23 1.27,-5.16 0,-1.92 -0.42,-3.64 -1.27,-5.15 -0.84,-1.51 -2,-2.68 -3.48,-3.53 -1.48,-0.84 -3.14,-1.26 -4.98,-1.26 -1.83,0 -3.49,0.42 -4.97,1.26 -1.48,0.85 -2.64,2.02 -3.48,3.53 -0.85,1.51 -1.27,3.23 -1.27,5.15 0,1.93 0.42,3.64 1.27,5.16 0.84,1.5 2,2.68 3.48,3.52 1.48,0.85 3.14,1.27 4.97,1.27 z m 22.56,-25.49 h 7.15 v 20.25 l 14.83,-20.25 h 6.74 v 31.08 h -7.1 v -20.2 l -14.83,20.2 h -6.79 z m 60.2,5.87 h -9.94 v 25.21 h -7.11 v -25.21 h -9.9 v -5.87 h 26.95 z m 28.6,19.44 v 5.77 h -24.07 v -31.08 h 23.49 v 5.78 h -16.34 v 6.75 h 14.43 v 5.59 h -14.43 v 7.19 z m 33.52,-25.31 v 31.08 h -7.11 v -25.21 h -10.65 l -0.22,6.48 c -0.15,4.41 -0.51,7.98 -1.07,10.72 -0.56,2.74 -1.5,4.84 -2.82,6.3 -1.32,1.47 -3.16,2.2 -5.53,2.2 -0.97,0 -2.16,-0.16 -3.55,-0.49 l 0.44,-6.08 c 0.39,0.12 0.82,0.18 1.29,0.18 1.72,0 2.92,-1.01 3.6,-3.04 0.68,-2.03 1.11,-5.2 1.29,-9.53 l 0.44,-12.61 z m 22.82,10.22 c 3.79,0 6.69,0.84 8.72,2.53 2.03,1.68 3.04,4.19 3.04,7.5 0,3.52 -1.11,6.21 -3.35,8.06 -2.23,1.85 -5.38,2.77 -9.43,2.77 h -14.03 v -31.08 h 7.14 v 10.22 z m -1.42,15.54 c 1.86,0 3.32,-0.46 4.37,-1.38 1.05,-0.92 1.58,-2.25 1.58,-4 0,-3.22 -1.99,-4.84 -5.95,-4.84 h -6.49 v 10.22 z m 46.88,-25.76 v 31.08 h -7.19 v -12.74 h -14.12 v 12.74 h -7.19 v -31.08 h 7.19 v 12.26 h 14.12 v -12.26 z m 22.82,10.22 c 3.79,0 6.7,0.84 8.72,2.53 2.03,1.68 3.05,4.19 3.05,7.5 0,3.52 -1.12,6.21 -3.36,8.06 -2.23,1.85 -5.38,2.77 -9.43,2.77 h -14.03 v -31.08 h 7.15 v 10.22 z m -1.42,15.54 c 1.86,0 3.32,-0.46 4.37,-1.38 1.05,-0.92 1.58,-2.25 1.58,-4 0,-3.22 -1.98,-4.84 -5.95,-4.84 h -6.48 v 10.22 z m 17.14,-25.76 h 7.15 v 31.08 h -7.15 z m 20.47,0 6.43,9.42 6.44,-9.42 h 8.44 l -10.35,14.88 11.19,16.2 h -8.48 l -7.24,-10.3 -7.14,10.3 h -8.31 l 11.1,-15.89 -10.39,-15.19 z m 52.48,0 c 2.75,0 5.14,0.46 7.17,1.38 2.02,0.92 3.58,2.22 4.68,3.91 1.09,1.69 1.64,3.68 1.64,5.99 0,2.28 -0.55,4.27 -1.64,5.97 -1.1,1.71 -2.66,3.01 -4.68,3.91 -2.03,0.9 -4.42,1.35 -7.17,1.35 h -6.27 v 8.57 h -7.19 v -31.08 z m -0.41,16.65 c 2.17,0 3.81,-0.46 4.93,-1.39 1.13,-0.94 1.69,-2.26 1.69,-3.98 0,-1.74 -0.56,-3.08 -1.69,-4.02 -1.12,-0.93 -2.76,-1.39 -4.93,-1.39 h -5.86 v 10.78 z m 38.14,7.77 h -14.43 l -2.75,6.66 h -7.37 l 13.85,-31.08 h 7.11 l 13.89,31.08 h -7.54 z m -2.26,-5.46 -4.93,-11.9 -4.93,11.9 z m 30.94,12.66 c -3.16,0 -6.03,-0.69 -8.59,-2.07 -2.56,-1.37 -4.57,-3.28 -6.03,-5.72 -1.47,-2.45 -2.2,-5.21 -2.2,-8.29 0,-3.07 0.73,-5.83 2.2,-8.28 1.46,-2.44 3.47,-4.35 6.03,-5.72 2.56,-1.38 5.44,-2.07 8.64,-2.07 2.69,0 5.13,0.48 7.3,1.42 2.18,0.95 4.01,2.31 5.49,4.09 l -4.62,4.26 c -2.1,-2.43 -4.71,-3.64 -7.82,-3.64 -1.92,0 -3.64,0.42 -5.15,1.26 -1.51,0.85 -2.68,2.02 -3.53,3.53 -0.84,1.51 -1.26,3.23 -1.26,5.15 0,1.93 0.42,3.64 1.26,5.16 0.85,1.5 2.02,2.68 3.53,3.52 1.51,0.85 3.23,1.27 5.15,1.27 3.11,0 5.72,-1.23 7.82,-3.69 l 4.62,4.27 c -1.48,1.8 -3.32,3.18 -5.51,4.13 -2.19,0.94 -4.63,1.42 -7.33,1.42 z m 40.98,-25.75 h -9.94 v 25.21 h -7.1 v -25.21 h -9.91 v -5.87 h 26.95 z m 26.07,9.01 c 1.89,0.56 3.34,1.48 4.35,2.75 1,1.27 1.51,2.84 1.51,4.71 0,2.75 -1.05,4.9 -3.13,6.44 -2.09,1.53 -5.07,2.3 -8.95,2.3 h -15.32 v -31.08 h 14.48 c 3.61,0 6.42,0.7 8.43,2.09 2.02,1.39 3.02,3.38 3.02,5.95 0,1.54 -0.38,2.89 -1.15,4.06 -0.77,1.17 -1.85,2.1 -3.24,2.78 z m -14.39,-2 h 6.71 c 1.56,0 2.75,-0.32 3.55,-0.95 0.8,-0.64 1.2,-1.58 1.2,-2.82 0,-1.22 -0.41,-2.15 -1.22,-2.8 -0.82,-0.65 -1.99,-0.98 -3.53,-0.98 h -6.71 z m 7.9,12.88 c 3.38,0 5.07,-1.34 5.07,-4 0,-2.58 -1.69,-3.86 -5.07,-3.86 h -7.9 v 7.86 z m 32.86,5.86 c -3.23,0 -6.13,-0.7 -8.73,-2.09 -2.58,-1.39 -4.61,-3.31 -6.08,-5.75 -1.46,-2.44 -2.2,-5.19 -2.2,-8.24 0,-3.04 0.74,-5.79 2.2,-8.23 1.47,-2.44 3.5,-4.36 6.08,-5.75 2.6,-1.39 5.5,-2.09 8.73,-2.09 3.23,0 6.13,0.7 8.7,2.09 2.58,1.39 4.6,3.31 6.08,5.75 1.48,2.44 2.22,5.19 2.22,8.23 0,3.05 -0.74,5.8 -2.22,8.24 -1.48,2.44 -3.5,4.36 -6.08,5.75 -2.57,1.39 -5.47,2.09 -8.7,2.09 z m 0,-6.13 c 1.83,0 3.49,-0.42 4.97,-1.27 1.48,-0.84 2.64,-2.02 3.49,-3.52 0.84,-1.52 1.26,-3.23 1.26,-5.16 0,-1.92 -0.42,-3.64 -1.26,-5.15 -0.85,-1.51 -2.01,-2.68 -3.49,-3.53 -1.48,-0.84 -3.14,-1.26 -4.97,-1.26 -1.84,0 -3.49,0.42 -4.97,1.26 -1.48,0.85 -2.65,2.02 -3.49,3.53 -0.84,1.51 -1.26,3.23 -1.26,5.15 0,1.93 0.42,3.64 1.26,5.16 0.84,1.5 2.01,2.68 3.49,3.52 1.48,0.85 3.13,1.27 4.97,1.27 z m 36.01,-25.49 c 2.75,0 5.14,0.46 7.17,1.38 2.02,0.92 3.59,2.22 4.68,3.91 1.1,1.69 1.64,3.68 1.64,5.99 0,2.28 -0.54,4.27 -1.64,5.97 -1.09,1.71 -2.66,3.01 -4.68,3.91 -2.03,0.9 -4.42,1.35 -7.17,1.35 h -6.26 v 8.57 h -7.2 v -31.08 z m -0.4,16.65 c 2.16,0 3.8,-0.46 4.93,-1.39 1.12,-0.94 1.68,-2.26 1.68,-3.98 0,-1.74 -0.56,-3.08 -1.68,-4.02 -1.13,-0.93 -2.77,-1.39 -4.93,-1.39 h -5.86 v 10.78 z m 33.92,14.97 c -3.23,0 -6.14,-0.7 -8.73,-2.09 -2.59,-1.39 -4.62,-3.31 -6.08,-5.75 -1.47,-2.44 -2.2,-5.19 -2.2,-8.24 0,-3.04 0.73,-5.79 2.2,-8.23 1.46,-2.44 3.49,-4.36 6.08,-5.75 2.59,-1.39 5.5,-2.09 8.73,-2.09 3.22,0 6.12,0.7 8.7,2.09 2.57,1.39 4.6,3.31 6.08,5.75 1.48,2.44 2.22,5.19 2.22,8.23 0,3.05 -0.74,5.8 -2.22,8.24 -1.48,2.44 -3.51,4.36 -6.08,5.75 -2.58,1.39 -5.48,2.09 -8.7,2.09 z m 0,-6.13 c 1.83,0 3.49,-0.42 4.97,-1.27 1.48,-0.84 2.64,-2.02 3.49,-3.52 0.84,-1.52 1.26,-3.23 1.26,-5.16 0,-1.92 -0.42,-3.64 -1.26,-5.15 -0.85,-1.51 -2.01,-2.68 -3.49,-3.53 -1.48,-0.84 -3.14,-1.26 -4.97,-1.26 -1.84,0 -3.5,0.42 -4.98,1.26 -1.48,0.85 -2.64,2.02 -3.48,3.53 -0.84,1.51 -1.27,3.23 -1.27,5.15 0,1.93 0.43,3.64 1.27,5.16 0.84,1.5 2,2.68 3.48,3.52 1.48,0.85 3.14,1.27 4.98,1.27 z m 44.08,-10.61 c 1.9,0.56 3.35,1.48 4.36,2.75 1,1.27 1.51,2.84 1.51,4.71 0,2.75 -1.05,4.9 -3.13,6.44 -2.09,1.53 -5.07,2.3 -8.95,2.3 h -15.32 v -31.08 h 14.48 c 3.61,0 6.42,0.7 8.43,2.09 2.01,1.39 3.02,3.38 3.02,5.95 0,1.54 -0.38,2.89 -1.15,4.06 -0.77,1.17 -1.85,2.1 -3.25,2.78 z m -14.38,-2 h 6.7 c 1.57,0 2.76,-0.32 3.56,-0.95 0.79,-0.64 1.2,-1.58 1.2,-2.82 0,-1.22 -0.41,-2.15 -1.23,-2.8 -0.81,-0.65 -1.99,-0.98 -3.53,-0.98 h -6.7 z m 7.9,12.88 c 3.38,0 5.06,-1.34 5.06,-4 0,-2.58 -1.68,-3.86 -5.06,-3.86 h -7.9 v 7.86 z"
   id="path2" />
   <g
   id="g5">
    <path
   class="fil2"
   d="m 904.5,210.83 c 8.02,22.78 12.41,47.29 12.41,72.82 0,80.55 -43.48,150.94 -108.23,189.02 l -37.76,-52.19 c 48.4,-26.44 81.23,-77.8 81.23,-136.83 0,-16.63 -2.62,-32.64 -7.44,-47.67 22.13,-3.56 42.5,-12.39 59.79,-25.15 z M 687.39,128.09 c -81.9,4.63 -146.88,72.5 -146.88,155.56 0,86.05 69.76,155.81 155.82,155.81 12.08,0 23.84,-1.37 35.14,-3.98 l 39.59,54.73 c -22.92,8.13 -47.59,12.58 -73.3,12.58 -121.02,0 -219.14,-98.12 -219.14,-219.14 0,-118.07 93.37,-214.31 210.3,-218.95 -2.91,11.16 -4.47,22.87 -4.47,34.95 0,9.75 1.02,19.26 2.94,28.44 z"
   id="path3" />
    <path
   class="fil1"
   d="M 782.87,438.34 703.58,325.1 673.57,372.67 h -68.42 l 64.35,-89.79 -62.06,-88.26 h 67.4 l 30.27,44.77 75.75,-115.32 c 8.4,14.3 23.93,23.9 41.7,23.9 1.75,0 3.47,-0.1 5.16,-0.28 l -90.31,132.9 114.13,157.75 z m 45.55,-386.66 1.74,-2.65 h 64.61 l -25.63,37.72 c -5.15,-18.6 -21.12,-32.7 -40.72,-35.07 z"
   id="path4" />
    <path
   class="fil2"
   d="m 822.56,0 c 55.04,0 99.65,44.61 99.65,99.65 0,55.03 -44.61,99.65 -99.65,99.65 -55.03,0 -99.65,-44.62 -99.65,-99.65 C 722.91,44.61 767.53,0 822.56,0 Z m 0,51.33 c 26.69,0 48.32,21.63 48.32,48.32 0,26.69 -21.63,48.32 -48.32,48.32 -26.68,0 -48.32,-21.63 -48.32,-48.32 0,-26.69 21.64,-48.32 48.32,-48.32 z"
   id="path5" />
   </g>
  </g>
 </g>
</svg>
