<svg width="360" height="360" viewBox="0 0 360 360" fill="none" xmlns="http://www.w3.org/2000/svg">
<path d="M0 180C0 80.5887 80.5887 0 180 0C279.411 0 360 80.5887 360 180C360 279.411 279.411 360 180 360C80.5887 360 0 279.411 0 180Z" fill="#CFE741"/>
<path d="M161.164 329.875L159.852 245.129M159.852 245.129C155.288 211.451 205.542 153.177 273.602 150.25C277.936 217.681 235.172 270.147 178.227 272.303M159.852 245.129C147.961 210.887 116.929 190.011 78.9142 192.163C76.775 227.22 95.3447 264.566 146.289 272.303" stroke="black" stroke-width="8" stroke-linecap="round"/>
<circle cx="180" cy="180" r="153" stroke="black" stroke-width="9"/>
</svg>
