<?xml version="1.0" encoding="UTF-8" standalone="no"?>
<svg
   xml:space="preserve"
   width="45"
   height="50"
   version="1.1"
   style="clip-rule:evenodd;fill-rule:evenodd;image-rendering:optimizeQuality;shape-rendering:geometricPrecision;text-rendering:geometricPrecision"
   viewBox="0 0 445 500"
   id="svg1"
   xmlns="http://www.w3.org/2000/svg"
   xmlns:svg="http://www.w3.org/2000/svg">
 
    <defs
   id="defs1"><style
     type="text/css"
     id="style1">
   <![CDATA[
    .fil2 {fill:#3FC4BD}
    .fil1 {fill:#3FC4BD;fill-rule:nonzero}
    .fil0 {fill:white;fill-rule:nonzero}
   ]]>
  </style></defs>
    <g
   id="Слой_x0020_1"
   transform="translate(-455.98529,-104.1156)">
  <metadata
   id="CorelCorpID_0Corel-Layer" />
        <g
   id="_2555511825008">
   
   
   <g
   id="g5"
   transform="translate(-23.008785,104.1156)">
    <path
   class="fil2"
   d="m 904.5,210.83 c 8.02,22.78 12.41,47.29 12.41,72.82 0,80.55 -43.48,150.94 -108.23,189.02 l -37.76,-52.19 c 48.4,-26.44 81.23,-77.8 81.23,-136.83 0,-16.63 -2.62,-32.64 -7.44,-47.67 22.13,-3.56 42.5,-12.39 59.79,-25.15 z M 687.39,128.09 c -81.9,4.63 -146.88,72.5 -146.88,155.56 0,86.05 69.76,155.81 155.82,155.81 12.08,0 23.84,-1.37 35.14,-3.98 l 39.59,54.73 c -22.92,8.13 -47.59,12.58 -73.3,12.58 -121.02,0 -219.14,-98.12 -219.14,-219.14 0,-118.07 93.37,-214.31 210.3,-218.95 -2.91,11.16 -4.47,22.87 -4.47,34.95 0,9.75 1.02,19.26 2.94,28.44 z"
   id="path3" />
       <path
   class="fil1"
   d="M 782.87,438.34 703.58,325.1 673.57,372.67 h -68.42 l 64.35,-89.79 -62.06,-88.26 h 67.4 l 30.27,44.77 75.75,-115.32 c 8.4,14.3 23.93,23.9 41.7,23.9 1.75,0 3.47,-0.1 5.16,-0.28 l -90.31,132.9 114.13,157.75 z m 45.55,-386.66 1.74,-2.65 h 64.61 l -25.63,37.72 c -5.15,-18.6 -21.12,-32.7 -40.72,-35.07 z"
   id="path4" />
       <path
   class="fil2"
   d="m 822.56,0 c 55.04,0 99.65,44.61 99.65,99.65 0,55.03 -44.61,99.65 -99.65,99.65 -55.03,0 -99.65,-44.62 -99.65,-99.65 C 722.91,44.61 767.53,0 822.56,0 Z m 0,51.33 c 26.69,0 48.32,21.63 48.32,48.32 0,26.69 -21.63,48.32 -48.32,48.32 -26.68,0 -48.32,-21.63 -48.32,-48.32 0,-26.69 21.64,-48.32 48.32,-48.32 z"
   id="path5" />
   </g>
  </g>
 </g>
</svg>
