<svg xmlns="http://www.w3.org/2000/svg" version="1.1" xmlns:xlink="http://www.w3.org/1999/xlink" width="512" height="512" x="0" y="0" viewBox="0 0 32 32" style="enable-background:new 0 0 512 512" xml:space="preserve" class=""><g><path d="m24.87 23.57-6 2.28a2.49 2.49 0 0 0-2.49-2c-1 0-2.18-.25-5.59-1.53a14.93 14.93 0 0 0-5.54-.15.74.74 0 0 0-.74-.7H1a.76.76 0 0 0-.75.75v8.59a.76.76 0 0 0 .75.75h3.46a.71.71 0 0 0 .6-.33 45.6 45.6 0 0 0 7 .54c3.51 0 7.05-.42 9.16-1.56 2.67-1.44 5.18-3 5.17-3a2 2 0 0 0 1.21-2.61 2.06 2.06 0 0 0-2.73-1.03zM3.71 30h-2v-7h2zm22-4.13s-2.51 1.53-5.17 3c-3.21 1.74-10.72 1.61-15.33.85v-6.06a14 14 0 0 1 5 .06c3.61 1.35 4.89 1.61 6.08 1.61a1 1 0 0 1 1 .8v.05h-5.04a.75.75 0 0 0 0 1.5h5.88a.76.76 0 0 0 .27-.05l7-2.66c.46-.17.73 0 .82.21s-.06.51-.51.73zM31 .46h-3.46a.71.71 0 0 0-.6.33c-4.7-.76-12.57-.94-16.19 1-2.67 1.44-5.18 3-5.17 3A2 2 0 0 0 4.4 7.4a2 2 0 0 0 1.84 1.2 2.45 2.45 0 0 0 .89-.17l6-2.28a2.49 2.49 0 0 0 2.49 2c1 0 2.18.25 5.59 1.53A9.79 9.79 0 0 0 24 10a22 22 0 0 0 2.77-.19.74.74 0 0 0 .74.7H31a.76.76 0 0 0 .75-.75V1.21A.76.76 0 0 0 31 .46zm-9.25 7.82c-3.61-1.35-4.89-1.61-6.08-1.61a1 1 0 0 1-1-.8h5.13a.75.75 0 0 0 0-1.5h-5.93a.76.76 0 0 0-.27 0L6.6 7c-.46.17-.73 0-.82-.21s.06-.51.51-.73c0 0 2.51-1.53 5.17-3 3.21-1.73 10.72-1.61 15.33-.84v6.12a14 14 0 0 1-5.04-.06zm8.5.77h-2V2h2zm-15.68 10.1h1v-.9h1.31v-.8H15.6v-.71h.91a2.28 2.28 0 0 0 1-.18 1.67 1.67 0 0 0 .66-.46 1.71 1.71 0 0 0 .36-.62 2.08 2.08 0 0 0 .12-.68 2.32 2.32 0 0 0-.2-.93 1.59 1.59 0 0 0-.66-.73 2.35 2.35 0 0 0-1.24-.29h-1.98v2.92h-.7v1h.7v.71h-.7v.8h.7zm1-5.33h1a1 1 0 0 1 .6.16.73.73 0 0 1 .3.38 1.23 1.23 0 0 1 .09.44 1 1 0 0 1-.1.45.79.79 0 0 1-.31.37 1 1 0 0 1-.58.15h-1zm.4 8.93A6.75 6.75 0 1 0 9.25 16 6.76 6.76 0 0 0 16 22.75zm0-12A5.25 5.25 0 1 1 10.75 16 5.26 5.26 0 0 1 16 10.75z" fill="#000000" opacity="1" data-original="#000000"></path></g></svg>