<svg xmlns="http://www.w3.org/2000/svg" version="1.1" xmlns:xlink="http://www.w3.org/1999/xlink" width="512" height="512" x="0" y="0" viewBox="0 0 24 24" style="enable-background:new 0 0 512 512" xml:space="preserve" class=""><g><path fill="#42C0BD" d="M3.074 9.462c-.65.273-1.054.76-1.06 1.448-.004.48.32 1.127.971 1.39.268.11 4.03.616 4.03.616s.995 3.147 1.354 4.253c.104.32.163.477.39.686.388.354 1.042.243 1.324-.041.749-.75 1.931-1.907 1.931-1.907l.498.405s2.21 1.763 3.418 2.593c.711.489 1.205.999 2.006 1.002.408.002 1.062-.201 1.494-.696.286-.327.469-.85.54-1.32.161-1.064 2.052-12.58 2.044-12.984a1.013 1.013 0 0 0-1.003-1c-.282.002-.515.084-1.033.242C15.973 5.372 3.34 9.351 3.074 9.462zm14.94-2.556s-5.278 4.595-7.387 6.709c-.676.676-.723 1.838-.723 1.838l-1.09-3.487z" opacity="1" data-original="#000000" class=""></path></g></svg>